<?xml version="1.0" standalone="no"?>
<!DOCTYPE svg PUBLIC "-//W3C//DTD SVG 20010904//EN"
 "http://www.w3.org/TR/2001/REC-SVG-20010904/DTD/svg10.dtd">
<svg version="1.0" xmlns="http://www.w3.org/2000/svg"
 width="96.000000pt" height="96.000000pt" viewBox="0 0 96.000000 96.000000"
 preserveAspectRatio="xMidYMid meet">
<metadata>
Created by potrace 1.16, written by Peter Selinger 2001-2019
</metadata>
<g transform="translate(0.000000,96.000000) scale(0.100000,-0.100000)"
fill="#000000" stroke="none">
<path d="M175 785 l-25 -24 0 -281 0 -281 26 -24 27 -25 279 0 279 0 24 25 25
24 0 281 0 281 -25 24 -24 25 -281 0 -281 0 -24 -25z m243 -230 c50 -38 91
-73 92 -76 0 -3 -45 -41 -101 -83 -97 -75 -101 -77 -120 -60 -10 9 -19 20 -19
24 0 4 32 32 71 61 l70 54 -28 25 c-16 14 -49 41 -73 61 -45 36 -45 37 -26 58
22 24 17 26 134 -64z"/>
</g>
</svg>
